<svg width="307" height="300" viewBox="0 0 307 300" fill="none" xmlns="http://www.w3.org/2000/svg">
<path d="M179.916 245.949C179.916 255.656 177.491 264.553 172.639 272.641C167.787 280.73 161.318 287.201 153.232 292.054C145.146 296.907 136.251 299.333 126.548 299.333H53.7728C44.0694 299.333 35.0399 296.907 26.6842 292.054C18.5981 287.201 12.1292 280.73 7.27752 272.641C2.42584 264.553 0 255.656 0 245.949V216.831C0 211.708 1.752 207.394 5.25599 203.889C9.02952 200.115 13.4769 198.228 18.5981 198.228H29.9187C35.0399 198.228 39.3525 200.115 42.8565 203.889C46.63 207.394 48.5168 211.708 48.5168 216.831V245.949C48.5168 247.298 49.0559 248.646 50.134 249.994C51.2122 251.072 52.4251 251.611 53.7728 251.611H126.548C127.896 251.611 129.109 251.072 130.187 249.994C131.265 248.646 131.804 247.298 131.804 245.949V44.5466C131.804 39.1543 133.556 34.7057 137.06 31.2007C140.833 27.6957 145.281 25.9431 150.402 25.9431H161.318C166.709 25.9431 171.157 27.6957 174.661 31.2007C178.165 34.7057 179.916 39.1543 179.916 44.5466V245.949Z" fill="black"/>
<path d="M239.282 30.1896C239.282 35.3123 237.53 39.7609 234.026 43.5356C230.522 47.0406 226.075 48.7931 220.684 48.7931H178.232C174.728 48.7931 172.976 50.5456 172.976 54.0506V255.453C172.976 260.576 171.089 265.025 167.316 268.799C163.812 272.304 159.499 274.057 154.378 274.057H143.866C138.745 274.057 134.297 272.304 130.524 268.799C127.02 265.025 125.268 260.576 125.268 255.453V54.0506C125.268 50.5456 123.516 48.7931 120.012 48.7931H77.1552C72.034 48.7931 67.5866 47.0406 63.8131 43.5356C60.3091 39.7609 58.5571 35.3123 58.5571 30.1896V19.2702C58.5571 13.8779 60.3091 9.4292 63.8131 5.9242C67.5866 2.41919 72.034 0.666687 77.1552 0.666687H220.684C226.075 0.666687 230.522 2.41919 234.026 5.9242C237.53 9.4292 239.282 13.8779 239.282 19.2702V30.1896Z" fill="black"/>
<path d="M306.667 113.501C306.667 123.207 304.241 132.104 299.389 140.193C294.807 148.281 288.473 154.752 280.387 159.605C272.301 164.458 263.271 166.885 253.298 166.885H178.906C175.671 166.885 174.054 168.637 174.054 172.142V255.453C174.054 260.576 172.167 265.025 168.394 268.799C164.89 272.304 160.577 274.057 155.456 274.057H144.54C139.418 274.057 134.971 272.304 131.198 268.799C127.694 265.025 125.942 260.576 125.942 255.453V19.2702C125.942 13.8779 127.694 9.4292 131.198 5.9242C134.971 2.41919 139.418 0.666687 144.54 0.666687H253.298C263.271 0.666687 272.301 3.09323 280.387 7.94631C288.473 12.7994 294.807 19.2702 299.389 27.3586C304.241 35.4471 306.667 44.4792 306.667 54.455V113.501ZM258.958 113.501V54.455C258.958 50.6804 257.072 48.7931 253.298 48.7931H178.906C175.671 48.7931 174.054 50.5456 174.054 54.0506V113.501C174.054 117.006 175.671 118.758 178.906 118.758H253.298C257.072 118.758 258.958 117.006 258.958 113.501Z" fill="black"/>
</svg>
